<svg width="412" height="200" viewBox="0 0 412 200" fill="none" xmlns="http://www.w3.org/2000/svg">
<g clip-path="url(#clip0)">
<path d="M526.048 149.336C534.338 161.413 523.444 164.282 514.569 165.862C505.694 167.441 385.112 190.651 351.313 177.939C317.514 165.226 251.829 198.914 229.509 177.939C205.836 155.692 172.752 170.947 167.65 156.963C162.548 142.98 188.057 128.36 223.769 128.36C259.482 128.36 248.003 104.853 277.338 100.393C314.81 94.6959 295.832 37 351.313 37C375.038 37 396.591 48.4412 404.244 75.7729C413.238 107.896 475.031 63.5269 483.959 119.461C487.65 142.587 517.757 137.259 526.048 149.336Z" fill="#F8F8F8"/>
<path d="M382.392 58.0259C380.973 58.0259 379.823 56.8756 379.823 55.4567C379.823 54.0377 380.973 52.8875 382.392 52.8875C383.81 52.8875 384.96 54.0377 384.96 55.4567C384.959 56.8751 383.81 58.0246 382.392 58.0259Z" fill="#9876F7"/>
<path fill-rule="evenodd" clip-rule="evenodd" d="M370 46.4105C370 47.8294 371.15 48.9797 372.569 48.9797C373.987 48.9787 375.136 47.829 375.137 46.4105C375.137 44.9916 373.987 43.8413 372.569 43.8413C371.15 43.8413 370 44.9916 370 46.4105ZM370.806 46.4113C370.806 45.4378 371.595 44.6487 372.568 44.6487C373.541 44.6499 374.329 45.4383 374.331 46.4113C374.331 47.3847 373.542 48.1738 372.568 48.1738C371.595 48.1738 370.806 47.3847 370.806 46.4113Z" fill="#E4B99A"/>
<path d="M382.885 35.5813C382.663 35.5813 382.482 35.401 382.482 35.1785V33.4028C382.482 33.1803 382.663 33 382.885 33C383.107 33 383.288 33.1803 383.288 33.4028V35.1785C383.288 35.2854 383.245 35.3878 383.17 35.4633C383.094 35.5389 382.992 35.5813 382.885 35.5813Z" fill="#76D4CF"/>
<path d="M382.885 38.6905C382.663 38.6905 382.482 38.5101 382.482 38.2877V36.5119C382.482 36.2895 382.663 36.1091 382.885 36.1091C383.107 36.1091 383.288 36.2895 383.288 36.5119V38.2877C383.288 38.3945 383.245 38.497 383.17 38.5725C383.094 38.648 382.992 38.6905 382.885 38.6905Z" fill="#76D4CF"/>
<path d="M385.379 36.2474H383.784C383.561 36.2474 383.381 36.0671 383.381 35.8447C383.381 35.6222 383.561 35.4419 383.784 35.4419H385.379C385.601 35.4419 385.782 35.6222 385.782 35.8447C385.782 36.0671 385.601 36.2474 385.379 36.2474Z" fill="#76D4CF"/>
<path d="M381.988 36.2474H380.393C380.171 36.2474 379.99 36.0671 379.99 35.8447C379.99 35.6222 380.171 35.4419 380.393 35.4419H381.988C382.211 35.4419 382.391 35.6222 382.391 35.8447C382.391 36.0671 382.211 36.2474 381.988 36.2474Z" fill="#76D4CF"/>
<path d="M236.864 157.452C207.59 156.268 178.14 160.749 149.403 165.971C95.1404 172.787 89.1315 211.133 92.9099 229.454C92.9099 229.454 116.917 287.637 213.847 264.67C310.777 241.704 371.719 312.721 436.194 310.968C500.669 309.215 485.063 224.766 538.188 252.482C591.313 280.197 611.449 259.982 611.449 237.48C611.449 181.31 657.328 220.906 664.943 193.413C672.558 165.92 637.416 162.912 611.449 158.997C575.703 153.607 538.439 153.955 502.596 158.326C486.449 160.296 471.099 165.496 454.91 167.267C425.087 170.529 394.471 167.625 364.648 165.811C337.941 164.185 311.261 162.163 284.569 160.306C268.679 159.201 252.782 158.098 236.864 157.452Z" fill="#ECEDEF"/>
<path d="M337.534 171.576H290.352C289.616 171.577 288.918 171.899 288.439 172.458C287.407 172.4 286.314 172.368 285.182 172.368C278.908 172.368 273.822 173.324 273.822 174.503C273.822 175.683 278.908 176.638 285.182 176.638C286.704 176.638 288.154 176.582 289.481 176.48C289.759 176.584 290.054 176.638 290.352 176.638H337.534C338.931 176.638 340.064 175.505 340.064 174.107C340.064 172.709 338.931 171.576 337.534 171.576L337.534 171.576Z" fill="#D0D2D8"/>
<path d="M292.789 123.082H336.886C337.882 123.082 338.689 123.889 338.689 124.885V173.552C338.689 174.548 337.882 175.356 336.886 175.356H292.789C292.311 175.356 291.852 175.166 291.514 174.827C291.176 174.489 290.986 174.03 290.986 173.552V124.885C290.986 123.889 291.794 123.082 292.789 123.082Z" fill="#B2B7C7"/>
<path d="M286.432 162.589C286.432 162.589 288.108 168.23 292.122 169.058C296.136 169.887 295.104 140.872 299.887 135.868C304.67 130.864 325.257 131.247 325.843 123.082L297.292 123.109C293.425 123.113 290.012 125.634 288.871 129.329C286.18 138.03 282.343 153.764 286.432 162.589Z" fill="#424B63"/>
<path d="M291.777 165.883L291.474 163.129C291.426 162.687 291.189 162.288 290.824 162.034C290.459 161.78 290.003 161.696 289.572 161.804L286.432 162.589C285.669 162.78 285.173 163.514 285.28 164.292L285.609 166.672L285.479 166.697C285.479 166.697 277.564 171.925 276.709 172.213C275.853 172.501 271.489 175.915 277.779 175.275C284.07 174.635 291.862 172.86 292.181 171.585C292.489 170.356 291.731 166.962 291.788 166.145C291.792 166.057 291.788 165.969 291.777 165.883Z" fill="#424B63"/>
<path d="M329.884 107.363C329.884 107.363 334.095 124.52 316.838 126.79C299.582 129.06 295.925 124.996 294.987 130.499C294.049 136.002 294.049 153.543 291.705 163.674C291.705 164.05 284.859 164.519 284.859 164.519C284.859 164.519 273.136 134.125 281.951 117.99C284.768 113.066 303.615 109.6 308.492 108.026C313.369 106.452 329.612 106.116 329.884 107.363Z" fill="#E14674"/>
<path d="M254.359 175.846C260.633 175.846 265.719 174.89 265.719 173.711C265.719 172.532 260.633 171.576 254.359 171.576C248.086 171.576 243 172.532 243 173.711C243 174.89 248.086 175.846 254.359 175.846Z" fill="#D0D2D8"/>
<path d="M265.254 168.045L265.876 165.546C266.037 164.991 265.966 164.394 265.681 163.891C265.396 163.388 264.92 163.022 264.361 162.874L263.161 162.6C262.202 162.407 261.232 162.876 260.789 163.748L259.161 166.761L259.03 166.743C259.03 166.743 249.68 169.326 248.771 169.328C247.863 169.329 242.513 171.288 248.663 172.78C254.813 174.271 262.788 175.129 263.552 173.951C264.285 172.822 264.806 169.176 265.158 168.344C265.197 168.247 265.229 168.147 265.254 168.045Z" fill="#424B63"/>
<path d="M260.945 163.581C260.945 163.581 272.318 122.868 282.481 120.899C292.644 118.929 287.298 138.816 277.17 150.354C267.041 161.892 265.822 164.988 265.822 164.988L260.945 163.581Z" fill="#E14674"/>
<path d="M277.675 87.6589C277.544 87.6587 277.423 87.5901 277.355 87.4779C277.287 87.3657 277.283 87.2262 277.343 87.1099L285.779 70.9676C285.877 70.7896 286.1 70.7229 286.28 70.8172C286.461 70.9114 286.533 71.1323 286.443 71.3151L278.008 87.4574C277.943 87.5813 277.815 87.659 277.675 87.6589Z" fill="#76D4CF"/>
<path d="M281.894 92.4158C281.72 92.4143 281.57 92.2929 281.532 92.1229C281.493 91.9528 281.577 91.7788 281.734 91.7029L287.286 89.0876C287.408 89.0259 287.554 89.0353 287.667 89.1122C287.78 89.1891 287.842 89.3213 287.829 89.4574C287.816 89.5934 287.731 89.7118 287.605 89.7663L282.053 92.382C282.003 92.4048 281.949 92.4163 281.894 92.4158Z" fill="#76D4CF"/>
<path d="M295.3 98.2405H284.671C284.464 98.2405 284.296 98.0725 284.296 97.8652C284.296 97.658 284.464 97.49 284.671 97.49H295.3C295.508 97.49 295.675 97.658 295.675 97.8652C295.675 98.0725 295.508 98.2405 295.3 98.2405Z" fill="#76D4CF"/>
<path d="M284.277 110.268L283.382 110.743C283.141 110.872 282.842 110.78 282.714 110.539L270.872 88.2599C270.744 88.019 270.836 87.7197 271.077 87.5916L271.971 87.116C272.212 86.9879 272.511 87.0794 272.639 87.3204L284.481 109.6C284.609 109.841 284.518 110.14 284.277 110.268Z" fill="black"/>
<path d="M292.268 109.21V111.173C292.268 111.363 292.113 111.517 291.923 111.517H282.972C282.782 111.517 282.628 111.363 282.628 111.173V109.21C282.628 109.019 282.782 108.865 282.972 108.865H291.923C292.113 108.865 292.268 109.019 292.268 109.21Z" fill="black"/>
<path d="M297.13 109.735C297.13 109.735 292.099 80.1907 310.921 76.4151C326.991 73.5784 329.881 93.1102 330.155 108.61L297.13 109.735Z" fill="#4FA67C"/>
<path fill-rule="evenodd" clip-rule="evenodd" d="M313.884 76.5358L314.421 77.072C314.521 77.166 314.678 77.1633 314.775 77.066C314.873 76.9687 314.876 76.8117 314.782 76.711L314.245 76.1748C314.229 76.1598 314.21 76.1471 314.19 76.1373C314.149 76.1373 314.109 76.1365 314.068 76.1358C314.027 76.135 313.985 76.1343 313.944 76.1343C313.922 76.1445 313.902 76.1579 313.884 76.1741C313.784 76.2736 313.784 76.4354 313.883 76.5358H313.884ZM309.885 77.0707C309.984 77.1702 310.146 77.1702 310.246 77.0707L310.782 76.5345C310.811 76.504 310.832 76.4667 310.843 76.426C310.544 76.4871 310.252 76.5549 309.965 76.6294L309.885 76.7097C309.784 76.8093 309.784 76.9713 309.883 77.0718L309.885 77.0707ZM310.421 80.2977C310.521 80.1982 310.682 80.1982 310.782 80.2977H310.78C310.88 80.397 310.881 80.5585 310.782 80.6587L310.246 81.1952C310.145 81.2892 309.988 81.2866 309.891 81.1893C309.793 81.092 309.791 80.935 309.884 80.8343L310.421 80.2977ZM321.783 81.1956C321.883 81.2953 322.045 81.2953 322.144 81.1956C322.244 81.096 322.244 80.9344 322.144 80.8347L321.608 80.2981C321.508 80.1984 321.347 80.1984 321.247 80.2981C321.147 80.3978 321.147 80.5594 321.247 80.6591L321.783 81.1956ZM321.783 83.4642L321.247 82.9276C321.147 82.8279 321.147 82.6663 321.247 82.5666C321.347 82.467 321.508 82.467 321.608 82.5666L322.144 83.1028C322.213 83.1665 322.241 83.2624 322.218 83.3529C322.195 83.4434 322.124 83.5141 322.034 83.5373C321.943 83.5605 321.847 83.5324 321.783 83.4642ZM303.417 82.5675C303.317 82.4682 303.156 82.4682 303.056 82.5675L302.519 83.1037C302.426 83.2043 302.428 83.3613 302.525 83.4587C302.623 83.5561 302.78 83.5589 302.88 83.4651L303.417 82.9285C303.517 82.8284 303.517 82.6664 303.417 82.5664V82.5675ZM301.295 85.7334C301.195 85.833 301.033 85.833 300.934 85.7334L300.397 85.1972C300.298 85.0975 300.298 84.9359 300.397 84.8362C300.497 84.7365 300.658 84.7365 300.758 84.8362L301.295 85.3724C301.394 85.4721 301.394 85.6337 301.295 85.7334ZM300.397 91.2266C300.497 91.1271 300.658 91.1271 300.758 91.2266L301.294 91.7629C301.388 91.8635 301.386 92.0205 301.288 92.1179C301.191 92.2153 301.034 92.2181 300.933 92.1242L300.397 91.5876C300.298 91.4878 300.298 91.3265 300.397 91.2266ZM301.491 104.907C301.59 104.808 301.59 104.646 301.491 104.547L300.955 104.01C300.891 103.942 300.795 103.914 300.705 103.937C300.614 103.96 300.544 104.031 300.521 104.121C300.498 104.212 300.526 104.308 300.594 104.371L301.13 104.907C301.23 105.007 301.391 105.007 301.491 104.907ZM300.397 93.8574L300.934 94.3936C301.033 94.4933 301.195 94.4933 301.295 94.3936C301.394 94.2939 301.394 94.1323 301.295 94.0326L300.758 93.4964C300.658 93.3967 300.497 93.3967 300.397 93.4964C300.298 93.5961 300.298 93.7577 300.397 93.8574ZM300.397 108.548C300.497 108.449 300.658 108.449 300.758 108.548L301.295 109.084C301.389 109.185 301.386 109.342 301.289 109.439C301.191 109.537 301.034 109.54 300.934 109.446L300.397 108.909C300.298 108.809 300.298 108.648 300.397 108.548ZM300.397 102.518L300.934 103.054C301.033 103.153 301.195 103.153 301.295 103.054C301.394 102.954 301.394 102.793 301.295 102.693L300.758 102.157C300.694 102.092 300.6 102.067 300.512 102.091C300.424 102.114 300.355 102.183 300.331 102.271C300.308 102.359 300.333 102.453 300.397 102.518ZM300.934 100.786L300.397 100.249C300.298 100.149 300.298 99.9876 300.397 99.888C300.497 99.7883 300.658 99.7883 300.758 99.888L301.295 100.424C301.363 100.488 301.391 100.584 301.368 100.674C301.345 100.765 301.274 100.835 301.184 100.859C301.093 100.882 300.997 100.854 300.934 100.786ZM300.397 97.9803L300.934 98.5169C301.033 98.6166 301.195 98.6166 301.295 98.5169C301.394 98.4172 301.394 98.2556 301.295 98.1559L300.758 97.6193C300.658 97.5197 300.497 97.5197 300.397 97.6193C300.298 97.719 300.298 97.8806 300.397 97.9803ZM300.934 89.8567L300.397 89.3202C300.298 89.2205 300.298 89.0589 300.397 88.9592C300.497 88.8595 300.658 88.8595 300.758 88.9592L301.295 89.4958C301.394 89.5955 301.394 89.7571 301.295 89.8567C301.195 89.9564 301.033 89.9564 300.934 89.8567ZM303.417 97.6194C303.317 97.5201 303.156 97.5201 303.056 97.6194L302.52 98.156C302.42 98.2557 302.42 98.4173 302.52 98.517C302.619 98.6167 302.781 98.6167 302.881 98.517L303.417 97.9804C303.517 97.8803 303.517 97.7183 303.417 97.6183V97.6194ZM303.056 99.8881C303.156 99.7887 303.317 99.7887 303.417 99.8881V99.8869C303.517 99.987 303.517 100.149 303.417 100.249L302.88 100.786C302.78 100.879 302.623 100.877 302.525 100.779C302.428 100.682 302.426 100.525 302.519 100.424L303.056 99.8881ZM303.417 102.157C303.317 102.057 303.156 102.057 303.056 102.157L302.52 102.693C302.42 102.793 302.42 102.954 302.52 103.054C302.619 103.154 302.781 103.154 302.881 103.054L303.417 102.518C303.517 102.418 303.517 102.256 303.417 102.156V102.157ZM303.056 91.2277C303.156 91.1284 303.317 91.1284 303.417 91.2277V91.2266C303.517 91.3267 303.517 91.4887 303.417 91.5887L302.88 92.1253C302.78 92.2191 302.623 92.2163 302.525 92.1189C302.428 92.0215 302.426 91.8646 302.519 91.7639L303.056 91.2277ZM303.417 88.9591C303.317 88.8598 303.156 88.8598 303.056 88.9591L302.52 89.4957C302.42 89.5954 302.42 89.757 302.52 89.8567C302.619 89.9563 302.781 89.9563 302.881 89.8567L303.417 89.3201C303.517 89.22 303.517 89.058 303.417 88.958V88.9591ZM300.758 106.28L301.295 106.816C301.394 106.916 301.394 107.078 301.295 107.177C301.195 107.277 301.033 107.277 300.934 107.177L300.397 106.641C300.298 106.541 300.298 106.379 300.397 106.28C300.497 106.18 300.658 106.18 300.758 106.28ZM303.056 84.8361C303.156 84.7368 303.317 84.7368 303.417 84.8361V84.835C303.517 84.935 303.517 85.097 303.417 85.1971L302.881 85.7333C302.781 85.8329 302.619 85.8329 302.52 85.7333C302.42 85.6336 302.42 85.472 302.52 85.3723L303.056 84.8361ZM303.417 93.4964C303.317 93.3971 303.156 93.3971 303.056 93.4964L302.52 94.0326C302.42 94.1323 302.42 94.2939 302.52 94.3936C302.619 94.4932 302.781 94.4932 302.881 94.3936L303.417 93.8574C303.517 93.7573 303.517 93.5953 303.417 93.4953V93.4964ZM313.884 108.548C313.983 108.449 314.145 108.449 314.244 108.548L314.781 109.084C314.792 109.098 314.801 109.112 314.809 109.128L314.125 109.151L313.884 108.909C313.784 108.81 313.784 108.648 313.884 108.548ZM308.659 109.085L308.123 108.548C308.059 108.48 307.963 108.452 307.872 108.475C307.782 108.498 307.711 108.569 307.688 108.659C307.665 108.75 307.693 108.846 307.761 108.909L308.205 109.353L308.719 109.335C308.746 109.247 308.723 109.151 308.659 109.085ZM310.42 108.548C310.519 108.449 310.681 108.449 310.781 108.548V108.547C310.829 108.595 310.856 108.66 310.856 108.728C310.856 108.796 310.829 108.861 310.781 108.909L310.413 109.277L309.815 109.298C309.803 109.22 309.828 109.141 309.883 109.085L310.42 108.548ZM297.294 97.6194C297.194 97.5199 297.033 97.5199 296.933 97.6194L296.625 97.9278C296.611 98.15 296.598 98.3705 296.587 98.5894C296.651 98.5877 296.712 98.5618 296.758 98.5169L297.294 97.9804C297.342 97.9324 297.369 97.8673 297.369 97.7994C297.369 97.7315 297.342 97.6663 297.294 97.6183V97.6194ZM321.783 85.7334L321.247 85.1972C321.147 85.0975 321.147 84.9359 321.247 84.8362C321.347 84.7365 321.508 84.7365 321.608 84.8362L322.144 85.3724C322.244 85.4721 322.244 85.6337 322.144 85.7334C322.045 85.833 321.883 85.833 321.783 85.7334ZM297.294 99.8881C297.194 99.7886 297.033 99.7886 296.933 99.8881L296.529 100.292C296.526 100.48 296.523 100.665 296.521 100.849C296.606 100.87 296.695 100.846 296.758 100.786L297.294 100.249C297.342 100.201 297.369 100.136 297.369 100.068C297.369 100 297.342 99.935 297.294 99.887V99.8881ZM296.933 106.279C297.032 106.179 297.194 106.179 297.294 106.279V106.278C297.342 106.327 297.369 106.392 297.369 106.46C297.369 106.528 297.342 106.594 297.294 106.642L296.806 107.129C296.785 106.919 296.765 106.699 296.745 106.468L296.933 106.279ZM297.098 95.7111C297.197 95.6113 297.197 95.4499 297.098 95.3501C297.036 95.2904 296.948 95.2662 296.865 95.2859C296.835 95.5338 296.807 95.7809 296.782 96.027L297.098 95.7111ZM301.295 83.103C301.394 83.2031 301.394 83.3642 301.295 83.4643V83.4639C301.195 83.5631 301.034 83.5633 300.934 83.4643L300.769 83.2992C300.863 83.1536 300.961 83.011 301.06 82.8685L301.06 82.8684L301.295 83.103ZM297.294 102.156C297.194 102.056 297.033 102.056 296.933 102.156L296.534 102.555C296.538 102.747 296.543 102.936 296.549 103.122C296.625 103.133 296.703 103.107 296.758 103.053L297.294 102.517C297.394 102.417 297.394 102.255 297.294 102.156V102.156ZM300.955 86.6897L301.491 87.2262C301.585 87.327 301.582 87.4839 301.485 87.5812C301.387 87.6785 301.23 87.6812 301.13 87.5872L300.594 87.0506C300.494 86.951 300.494 86.7894 300.594 86.6897C300.693 86.59 300.855 86.59 300.955 86.6897ZM297.294 93.8566C297.393 93.7567 297.393 93.5954 297.294 93.4956C297.25 93.4527 297.192 93.4273 297.131 93.4243C297.092 93.6599 297.054 93.8953 297.018 94.1305L297.294 93.8566ZM302.519 109.084L303.056 108.547C303.156 108.448 303.317 108.448 303.417 108.547C303.516 108.647 303.516 108.809 303.417 108.908L302.88 109.445C302.78 109.539 302.623 109.536 302.525 109.439C302.428 109.341 302.426 109.184 302.519 109.084ZM297.097 104.01C296.998 103.911 296.837 103.911 296.737 104.01L296.589 104.158C296.601 104.392 296.613 104.62 296.627 104.843L297.098 104.372C297.198 104.271 297.197 104.11 297.097 104.01V104.01ZM296.961 108.529C297.061 108.451 297.203 108.458 297.294 108.548V108.547C297.394 108.647 297.394 108.809 297.294 108.908L297.044 109.159C297.02 108.985 296.991 108.775 296.961 108.529ZM307.762 100.248L308.298 100.784C308.399 100.878 308.556 100.875 308.653 100.778C308.751 100.681 308.753 100.524 308.659 100.423L308.123 99.8869C308.023 99.7929 307.866 99.7955 307.768 99.8928C307.671 99.9901 307.668 100.147 307.762 100.248ZM308.659 81.1953C308.56 81.2949 308.398 81.2949 308.298 81.1953L307.762 80.6587C307.668 80.558 307.671 80.401 307.768 80.3037C307.866 80.2064 308.023 80.2037 308.123 80.2977L308.659 80.8343C308.759 80.934 308.759 81.0956 308.659 81.1953ZM310.782 88.958C310.682 88.8585 310.521 88.8585 310.421 88.958L309.884 89.4946C309.791 89.5953 309.793 89.7523 309.891 89.8496C309.988 89.9469 310.145 89.9495 310.246 89.8556L310.782 89.319C310.881 89.2188 310.88 89.0573 310.78 88.958H310.782ZM310.421 93.4953C310.521 93.3958 310.682 93.3958 310.782 93.4953H310.78C310.88 93.5946 310.881 93.7561 310.782 93.8563L310.246 94.3925C310.145 94.4864 309.988 94.4838 309.891 94.3865C309.793 94.2892 309.791 94.1322 309.884 94.0315L310.421 93.4953ZM310.782 91.2267C310.683 91.1271 310.521 91.1271 310.421 91.2267L309.885 91.7629C309.787 91.863 309.788 92.023 309.887 92.1219C309.986 92.2208 310.146 92.2218 310.246 92.1242L310.782 91.5876C310.881 91.4875 310.881 91.326 310.781 91.2267H310.782ZM310.421 82.5664C310.521 82.4669 310.683 82.4669 310.782 82.5664H310.781C310.881 82.6658 310.881 82.8272 310.782 82.9274L310.246 83.464C310.146 83.5616 309.986 83.5605 309.887 83.4617C309.788 83.3628 309.787 83.2028 309.885 83.1026L310.421 82.5664ZM307.762 82.9274L308.299 83.4639C308.4 83.5578 308.557 83.555 308.654 83.4576C308.751 83.3602 308.754 83.2032 308.66 83.1026L308.124 82.5664C308.06 82.4981 307.964 82.4699 307.874 82.493C307.783 82.5161 307.713 82.5867 307.689 82.6772C307.666 82.7677 307.694 82.8636 307.762 82.9274ZM310.421 84.8339C310.521 84.7344 310.682 84.7344 310.782 84.8339L310.78 84.835C310.879 84.9342 310.88 85.0949 310.782 85.1949L310.246 85.7311C310.145 85.8251 309.988 85.8224 309.891 85.7251C309.793 85.6278 309.791 85.4708 309.884 85.3701L310.421 84.8339ZM309.688 96.2461C309.788 96.3454 309.949 96.3454 310.049 96.2461L310.585 95.7095C310.685 95.6098 310.685 95.4482 310.585 95.3485C310.485 95.2489 310.324 95.2489 310.224 95.3485L309.688 95.8851C309.64 95.9329 309.613 95.998 309.612 96.0659C309.612 96.1338 309.639 96.199 309.687 96.2472L309.688 96.2461ZM310.049 87.5858C309.949 87.6851 309.788 87.6851 309.688 87.5858L309.687 87.5869C309.639 87.5387 309.612 87.4735 309.612 87.4056C309.613 87.3377 309.64 87.2726 309.688 87.2248L310.224 86.6883C310.289 86.6238 310.383 86.5986 310.471 86.6222C310.559 86.6458 310.628 86.7146 310.651 86.8027C310.675 86.8908 310.65 86.9847 310.585 87.0492L310.049 87.5858ZM310.049 78.9256L310.585 78.389C310.685 78.2893 310.685 78.1277 310.585 78.028C310.486 77.9284 310.324 77.9284 310.224 78.028L309.688 78.5646C309.589 78.6643 309.589 78.8259 309.688 78.9256C309.788 79.0253 309.95 79.0253 310.049 78.9256ZM310.585 104.37L310.049 104.906L310.047 104.907C309.947 105.005 309.787 105.005 309.688 104.906C309.589 104.807 309.589 104.645 309.688 104.545L310.224 104.009C310.288 103.941 310.384 103.912 310.474 103.936C310.565 103.959 310.635 104.03 310.658 104.12C310.681 104.211 310.653 104.306 310.585 104.37ZM310.782 99.8857C310.683 99.7862 310.521 99.7862 310.421 99.8857L309.885 100.422C309.787 100.522 309.788 100.682 309.887 100.781C309.986 100.88 310.146 100.881 310.246 100.783L310.782 100.247C310.881 100.147 310.88 99.986 310.781 99.8868L310.782 99.8857ZM310.421 97.6171C310.521 97.5175 310.682 97.5175 310.782 97.6171L310.78 97.6182C310.879 97.7174 310.88 97.878 310.782 97.978L310.246 98.5146C310.145 98.6086 309.988 98.606 309.891 98.5087C309.793 98.4114 309.791 98.2544 309.884 98.1537L310.421 97.6171ZM310.246 107.175L310.782 106.638C310.881 106.539 310.881 106.377 310.782 106.277C310.682 106.178 310.521 106.178 310.421 106.277L309.884 106.814C309.791 106.915 309.793 107.072 309.891 107.169C309.988 107.266 310.145 107.269 310.246 107.175ZM310.421 102.154C310.521 102.055 310.682 102.055 310.782 102.154L310.78 102.155C310.879 102.255 310.88 102.415 310.782 102.515L310.246 103.052C310.145 103.145 309.988 103.143 309.891 103.046C309.793 102.948 309.791 102.791 309.884 102.691L310.421 102.154ZM308.856 104.906C308.956 104.806 308.956 104.645 308.856 104.545L308.32 104.009C308.256 103.943 308.161 103.917 308.072 103.94C307.983 103.963 307.914 104.033 307.89 104.122C307.867 104.211 307.893 104.306 307.959 104.37L308.496 104.906C308.595 105.006 308.757 105.006 308.856 104.906ZM308.32 78.0287L308.856 78.5653C308.921 78.6298 308.946 78.7238 308.922 78.8119C308.899 78.8999 308.83 78.9687 308.742 78.9923C308.654 79.0159 308.56 78.9908 308.495 78.9263L307.959 78.3897C307.891 78.326 307.863 78.23 307.886 78.1395C307.909 78.0491 307.98 77.9784 308.07 77.9554C308.161 77.9323 308.257 77.9604 308.32 78.0287ZM308.659 77.0716C308.675 77.0543 308.688 77.0349 308.697 77.0138C308.653 77.0294 308.608 77.0444 308.564 77.0594L308.564 77.0594C308.501 77.0805 308.438 77.1015 308.377 77.1241C308.472 77.1658 308.584 77.1452 308.658 77.0719L308.659 77.0716ZM308.32 86.689L308.856 87.2255C308.956 87.3252 308.956 87.4868 308.856 87.5865C308.757 87.6862 308.595 87.6862 308.495 87.5865L307.959 87.0499C307.891 86.9862 307.863 86.8902 307.886 86.7998C307.909 86.7093 307.98 86.6387 308.07 86.6156C308.161 86.5925 308.257 86.6206 308.32 86.689ZM302.882 81.1949L303.418 80.6583C303.517 80.5584 303.517 80.3973 303.418 80.2973C303.389 80.2697 303.355 80.2494 303.316 80.2381C303.02 80.516 302.735 80.8044 302.463 81.1033C302.476 81.1377 302.495 81.1689 302.521 81.1949C302.62 81.2931 302.78 81.2933 302.88 81.1953L302.882 81.1949ZM302.685 96.2469C302.585 96.3464 302.424 96.3464 302.324 96.2469L302.323 96.2473C302.224 96.1471 302.224 95.9857 302.324 95.8859L302.86 95.3493C302.96 95.2554 303.117 95.258 303.215 95.3553C303.312 95.4526 303.315 95.6096 303.221 95.7103L302.685 96.2469ZM302.685 87.5865L303.221 87.0499C303.289 86.9862 303.317 86.8902 303.294 86.7998C303.271 86.7093 303.2 86.6387 303.11 86.6156C303.019 86.5925 302.923 86.6206 302.86 86.689L302.324 87.2255C302.224 87.3252 302.224 87.4868 302.324 87.5865C302.423 87.6862 302.585 87.6862 302.685 87.5865ZM308.32 95.3492L308.856 95.8858C308.921 95.9503 308.946 96.0442 308.922 96.1323C308.899 96.2204 308.83 96.2892 308.742 96.3128C308.654 96.3364 308.56 96.3112 308.495 96.2467L307.959 95.7102C307.891 95.6464 307.863 95.5505 307.886 95.46C307.909 95.3695 307.98 95.2989 308.07 95.2758C308.161 95.2527 308.257 95.2808 308.32 95.3492ZM302.685 104.907L303.221 104.371C303.287 104.307 303.313 104.212 303.29 104.123C303.266 104.034 303.197 103.964 303.108 103.941C303.019 103.917 302.924 103.944 302.86 104.01L302.324 104.546C302.225 104.646 302.225 104.807 302.324 104.907C302.423 105.006 302.584 105.006 302.683 104.907L302.685 104.907ZM308.299 92.1242L307.762 91.5876C307.694 91.5239 307.666 91.428 307.689 91.3375C307.713 91.247 307.783 91.1764 307.874 91.1533C307.964 91.1302 308.06 91.1583 308.124 91.2267L308.66 91.7629C308.754 91.8635 308.751 92.0205 308.654 92.1179C308.557 92.2153 308.4 92.2181 308.299 92.1242ZM307.762 93.8562L308.298 94.3924C308.398 94.492 308.56 94.492 308.659 94.3924C308.759 94.2927 308.759 94.1311 308.659 94.0314L308.123 93.4952C308.023 93.4012 307.866 93.4039 307.768 93.5012C307.671 93.5985 307.668 93.7554 307.762 93.8562ZM308.299 98.5158L307.762 97.9792C307.694 97.9155 307.666 97.8195 307.689 97.7291C307.713 97.6386 307.783 97.5679 307.874 97.5449C307.964 97.5218 308.06 97.5499 308.124 97.6182L308.66 98.1548C308.759 98.2545 308.759 98.4161 308.66 98.5158C308.56 98.6154 308.399 98.6154 308.299 98.5158ZM307.762 85.196L308.298 85.7322C308.398 85.8318 308.56 85.8318 308.659 85.7322C308.759 85.6325 308.759 85.4709 308.659 85.3712L308.123 84.835C308.023 84.741 307.866 84.7437 307.768 84.841C307.671 84.9383 307.668 85.0952 307.762 85.196ZM308.299 89.8556L307.762 89.319C307.694 89.2552 307.666 89.1593 307.689 89.0688C307.713 88.9784 307.783 88.9077 307.874 88.8846C307.964 88.8616 308.06 88.8897 308.124 88.958L308.66 89.4946C308.759 89.5943 308.759 89.7559 308.66 89.8556C308.56 89.9552 308.399 89.9552 308.299 89.8556ZM307.762 106.64L308.299 107.176C308.399 107.276 308.56 107.276 308.66 107.176C308.759 107.076 308.759 106.915 308.66 106.815L308.124 106.279C308.06 106.21 307.964 106.182 307.874 106.205C307.783 106.228 307.713 106.299 307.689 106.389C307.666 106.48 307.694 106.576 307.762 106.64ZM321.786 89.8556L321.249 89.319C321.185 89.2545 321.16 89.1606 321.183 89.0725C321.207 88.9844 321.276 88.9156 321.364 88.892C321.452 88.8684 321.546 88.8936 321.61 88.9581L322.147 89.4946C322.246 89.5943 322.246 89.7559 322.147 89.8556C322.047 89.9553 321.885 89.9553 321.786 89.8556ZM303.418 106.279C303.318 106.18 303.157 106.18 303.057 106.279L302.52 106.816C302.421 106.916 302.421 107.077 302.52 107.177C302.62 107.276 302.782 107.276 302.881 107.177L303.418 106.64C303.517 106.54 303.516 106.378 303.416 106.279L303.418 106.279ZM308.298 103.054L307.762 102.518C307.668 102.417 307.671 102.26 307.768 102.163C307.866 102.066 308.023 102.063 308.123 102.157L308.659 102.693C308.759 102.793 308.759 102.955 308.659 103.054C308.56 103.154 308.398 103.154 308.298 103.054ZM301.493 95.8877L300.956 95.3511C300.857 95.2514 300.695 95.2514 300.596 95.3511C300.496 95.4508 300.496 95.6124 300.596 95.7121L301.132 96.2487C301.195 96.317 301.291 96.3451 301.382 96.322C301.472 96.299 301.543 96.2283 301.566 96.1378C301.589 96.0474 301.561 95.9514 301.493 95.8877ZM329.539 98.5474C329.522 98.5391 329.507 98.5291 329.493 98.5173L329.491 98.5158C329.393 98.4155 329.394 98.2549 329.493 98.1556C329.505 98.2496 329.515 98.3451 329.526 98.4405L329.539 98.5474ZM327.908 92.1242C328.008 92.2181 328.165 92.2153 328.262 92.1179C328.36 92.0205 328.362 91.8635 328.268 91.7629L327.732 91.2267C327.669 91.1583 327.573 91.1302 327.482 91.1533C327.392 91.1764 327.321 91.247 327.298 91.3375C327.275 91.428 327.303 91.5239 327.371 91.5876L327.908 92.1242ZM327.908 98.5143L327.371 97.9777C327.303 97.9139 327.275 97.818 327.298 97.7275C327.321 97.637 327.392 97.5664 327.482 97.5433C327.573 97.5202 327.669 97.5483 327.732 97.6167L328.268 98.1533C328.368 98.253 328.368 98.4146 328.268 98.5143C328.169 98.6139 328.007 98.6139 327.908 98.5143ZM327.371 93.8547L327.907 94.3909C328.007 94.4906 328.168 94.4906 328.268 94.3909C328.368 94.2912 328.368 94.1296 328.268 94.0299L327.732 93.4937C327.631 93.3997 327.474 93.4024 327.377 93.4997C327.28 93.597 327.277 93.754 327.371 93.8547ZM327.907 100.783L327.371 100.246C327.277 100.146 327.28 99.9887 327.377 99.8914C327.474 99.7941 327.631 99.7915 327.732 99.8855L328.268 100.422C328.362 100.522 328.359 100.679 328.262 100.777C328.165 100.874 328.008 100.877 327.907 100.783ZM327.371 102.515L327.907 103.051C328.007 103.151 328.168 103.151 328.268 103.051C328.368 102.952 328.368 102.79 328.268 102.69L327.732 102.154C327.631 102.06 327.474 102.063 327.377 102.16C327.28 102.257 327.277 102.414 327.371 102.515ZM328.465 104.545C328.564 104.645 328.564 104.806 328.465 104.906C328.365 105.005 328.203 105.005 328.104 104.906L327.567 104.37C327.501 104.306 327.475 104.211 327.498 104.122C327.522 104.033 327.591 103.963 327.68 103.94C327.769 103.916 327.864 103.943 327.928 104.008L328.465 104.545ZM327.371 106.638L327.908 107.175C328.007 107.274 328.169 107.274 328.268 107.175C328.368 107.075 328.368 106.913 328.268 106.814L327.732 106.277C327.669 106.209 327.573 106.181 327.482 106.204C327.392 106.227 327.321 106.297 327.298 106.388C327.275 106.478 327.303 106.574 327.371 106.638ZM321.248 108.905C321.15 108.806 321.15 108.645 321.248 108.546L321.247 108.547C321.346 108.446 321.508 108.445 321.609 108.544L321.946 108.882L321.248 108.905ZM316.904 108.546C316.804 108.446 316.643 108.446 316.543 108.546L316.006 109.084V109.087L316.752 109.062L316.904 108.909C316.952 108.861 316.979 108.796 316.978 108.728C316.978 108.66 316.951 108.595 316.903 108.547L316.904 108.546ZM327.929 95.3481L328.465 95.8847C328.565 95.9844 328.565 96.146 328.465 96.2457C328.365 96.3454 328.204 96.3454 328.104 96.2457L327.568 95.7091C327.499 95.6453 327.471 95.5494 327.495 95.4589C327.518 95.3684 327.588 95.2978 327.679 95.2747C327.769 95.2516 327.865 95.2798 327.929 95.3481ZM321.249 91.5862L321.785 92.1227C321.886 92.2166 322.043 92.2138 322.14 92.1164C322.237 92.019 322.24 91.862 322.146 91.7614L321.61 91.2252C321.51 91.1255 321.348 91.1255 321.249 91.2252C321.149 91.3249 321.149 91.4865 321.249 91.5862ZM329.712 100.203C329.732 100.414 329.751 100.626 329.769 100.839C329.656 100.885 329.527 100.845 329.46 100.744C329.392 100.642 329.406 100.507 329.493 100.422L329.712 100.203ZM314.979 78.5643L314.443 78.0277C314.379 77.9594 314.283 77.9312 314.193 77.9543C314.102 77.9774 314.031 78.048 314.008 78.1385C313.985 78.229 314.013 78.3249 314.081 78.3887L314.618 78.9253C314.681 78.9936 314.777 79.0217 314.868 78.9986C314.958 78.9756 315.029 78.9049 315.052 78.8144C315.075 78.724 315.047 78.628 314.979 78.5643ZM329.499 103.046C329.402 102.949 329.399 102.792 329.493 102.691L329.886 102.302C329.902 102.527 329.917 102.752 329.931 102.977L329.854 103.052C329.754 103.146 329.597 103.144 329.499 103.046ZM329.658 104.905L330.021 104.541C330.011 104.34 330.001 104.139 329.99 103.938C329.931 103.942 329.875 103.967 329.833 104.008L329.297 104.544C329.197 104.644 329.197 104.805 329.297 104.905C329.396 105.004 329.556 105.005 329.656 104.907L329.658 104.905ZM330.117 106.911L329.855 107.173C329.754 107.267 329.597 107.264 329.5 107.167C329.403 107.07 329.4 106.913 329.494 106.812L330.03 106.276C330.049 106.258 330.071 106.244 330.095 106.233C330.103 106.46 330.11 106.686 330.117 106.911ZM323.173 104.905C323.273 105.005 323.434 105.005 323.534 104.905L324.07 104.369C324.139 104.305 324.167 104.21 324.144 104.119C324.121 104.029 324.05 103.958 323.96 103.935C323.869 103.912 323.773 103.94 323.709 104.008L323.173 104.544C323.074 104.644 323.074 104.805 323.173 104.905ZM327.371 89.3168C327.272 89.2169 327.272 89.0557 327.371 88.9558L327.37 88.9581C327.441 88.8852 327.55 88.8622 327.645 88.8995C327.741 89.2177 327.835 89.5394 327.924 89.8646C327.922 89.8625 327.919 89.861 327.916 89.8594C327.913 89.8577 327.91 89.8559 327.907 89.8534L327.371 89.3168ZM323.368 81.1953C323.468 81.2944 323.629 81.2944 323.729 81.1953L323.849 81.0748C323.744 80.939 323.637 80.8047 323.529 80.6733L323.368 80.8343C323.269 80.9341 323.269 81.0955 323.368 81.1953ZM323.904 82.5664C324.004 82.4671 324.165 82.4671 324.265 82.5664H324.268C324.366 82.6671 324.365 82.8283 324.265 82.9273L323.729 83.4639C323.629 83.5615 323.469 83.5605 323.37 83.4616C323.271 83.3627 323.27 83.2027 323.368 83.1026L323.904 82.5664ZM324.265 84.835C324.165 84.7357 324.004 84.7357 323.904 84.835L323.367 85.3712C323.274 85.4719 323.276 85.6289 323.374 85.7262C323.471 85.8235 323.628 85.8262 323.729 85.7322L324.265 85.196C324.365 85.0969 324.366 84.9357 324.268 84.835H324.265ZM323.904 108.547C324.004 108.448 324.165 108.448 324.265 108.547H324.268C324.333 108.615 324.355 108.713 324.325 108.802L323.626 108.826L323.904 108.547ZM330.152 108.483C330.105 108.492 330.062 108.514 330.027 108.547L329.964 108.61L330.154 108.603C330.155 108.568 330.154 108.531 330.154 108.497L330.153 108.484L330.152 108.483ZM323.907 88.958C324.007 88.8587 324.168 88.8587 324.268 88.958C324.367 89.058 324.367 89.2191 324.268 89.319L323.732 89.8556C323.631 89.9496 323.475 89.9469 323.377 89.8496C323.28 89.7523 323.277 89.5954 323.371 89.4946L323.907 88.958ZM327.371 108.547C327.331 108.589 327.307 108.643 327.302 108.701L327.865 108.681L327.731 108.547C327.631 108.448 327.47 108.448 327.37 108.547H327.371ZM314.443 86.6894L314.979 87.226C315.073 87.3267 315.07 87.4837 314.973 87.581C314.875 87.6783 314.718 87.6809 314.618 87.587L314.081 87.0504C314.013 86.9866 313.985 86.8907 314.008 86.8002C314.031 86.7098 314.102 86.6391 314.193 86.616C314.283 86.593 314.379 86.6211 314.443 86.6894ZM324.269 91.2266C324.169 91.1273 324.008 91.1273 323.908 91.2266L323.371 91.7628C323.274 91.8629 323.275 92.0229 323.374 92.1218C323.472 92.2207 323.632 92.2217 323.733 92.1241L324.269 91.5875C324.368 91.4876 324.368 91.3265 324.269 91.2266ZM323.535 96.2472C323.435 96.3468 323.274 96.3468 323.174 96.2472H323.172C323.074 96.1469 323.074 95.9857 323.174 95.8862L323.71 95.3496C323.81 95.25 323.971 95.25 324.071 95.3496C324.171 95.4493 324.171 95.6109 324.071 95.7106L323.535 96.2472ZM323.907 106.279L323.371 106.815C323.277 106.916 323.28 107.073 323.377 107.17C323.475 107.267 323.631 107.27 323.732 107.176L324.268 106.64C324.368 106.54 324.368 106.378 324.268 106.279C324.168 106.179 324.007 106.179 323.907 106.279ZM323.907 102.156C324.007 102.056 324.168 102.056 324.268 102.156C324.316 102.204 324.343 102.269 324.343 102.337C324.343 102.405 324.316 102.47 324.268 102.518L323.732 103.053C323.631 103.147 323.475 103.144 323.377 103.047C323.28 102.949 323.277 102.792 323.371 102.692L323.907 102.156ZM323.535 87.587L324.071 87.0505C324.171 86.9508 324.171 86.7892 324.071 86.6895C323.971 86.5898 323.81 86.5898 323.71 86.6895L323.174 87.2261C323.08 87.3268 323.083 87.4838 323.18 87.5811C323.277 87.6784 323.434 87.681 323.535 87.587ZM323.907 93.4952C324.007 93.3959 324.168 93.3959 324.268 93.4952C324.367 93.5951 324.367 93.7563 324.268 93.8562L323.732 94.3924C323.631 94.4864 323.475 94.4837 323.377 94.3864C323.28 94.2891 323.277 94.1322 323.371 94.0314L323.907 93.4952ZM324.268 97.6183C324.168 97.5189 324.007 97.5189 323.907 97.6183L323.371 98.1548C323.277 98.2555 323.28 98.4125 323.377 98.5098C323.475 98.6071 323.631 98.6098 323.732 98.5158L324.268 97.9777C324.366 97.878 324.366 97.718 324.268 97.6183ZM323.908 99.8869C324.008 99.7876 324.169 99.7876 324.269 99.8869C324.368 99.9868 324.368 100.148 324.269 100.248L323.733 100.784C323.632 100.882 323.472 100.881 323.374 100.782C323.275 100.683 323.274 100.523 323.371 100.423L323.908 99.8869ZM316.171 96.2472C316.072 96.3467 315.91 96.3467 315.811 96.2472H315.809C315.71 96.147 315.711 95.9857 315.811 95.8862L316.347 95.3497C316.447 95.2532 316.606 95.2548 316.704 95.3532C316.803 95.4516 316.804 95.6105 316.707 95.7106L316.171 96.2472ZM316.172 78.9266L316.708 78.39C316.804 78.2899 316.803 78.1309 316.704 78.0325C316.606 77.9342 316.447 77.9326 316.347 78.029L315.811 78.5656C315.711 78.6653 315.711 78.8269 315.811 78.9266C315.91 79.0263 316.072 79.0263 316.172 78.9266ZM316.368 107.176C316.268 107.276 316.107 107.276 316.007 107.176C315.908 107.076 315.908 106.915 316.007 106.815L316.543 106.279C316.643 106.179 316.804 106.179 316.904 106.279C317.004 106.378 317.004 106.54 316.904 106.64L316.368 107.176ZM316.171 104.907L316.707 104.371C316.772 104.307 316.797 104.213 316.774 104.125C316.75 104.037 316.681 103.968 316.593 103.944C316.505 103.92 316.411 103.946 316.347 104.01L315.81 104.547C315.711 104.646 315.711 104.808 315.81 104.907C315.91 105.006 316.07 105.006 316.17 104.907H316.171ZM316.171 87.587C316.072 87.6865 315.91 87.6865 315.811 87.587H315.809C315.71 87.4867 315.711 87.3254 315.811 87.226L316.347 86.6894C316.411 86.623 316.506 86.5963 316.595 86.6197C316.684 86.6431 316.754 86.7129 316.777 86.8022C316.801 86.8915 316.774 86.9864 316.708 87.0504L316.171 87.587ZM316.904 102.156C316.804 102.056 316.643 102.056 316.543 102.156L316.007 102.692C315.908 102.792 315.908 102.953 316.007 103.053C316.107 103.152 316.268 103.152 316.368 103.053L316.904 102.517C317.003 102.416 317.002 102.255 316.903 102.156H316.904ZM316.543 97.6182C316.643 97.5187 316.804 97.5187 316.904 97.6182H316.903C317.002 97.7176 317.003 97.8789 316.904 97.9792L316.368 98.5158C316.268 98.6149 316.107 98.6149 316.007 98.5158C315.908 98.416 315.908 98.2545 316.007 98.1548L316.543 97.6182ZM316.904 99.8869C316.804 99.7874 316.643 99.7874 316.543 99.8869L316.007 100.423C315.908 100.523 315.908 100.685 316.007 100.784C316.107 100.884 316.268 100.884 316.368 100.784L316.904 100.248C317.003 100.148 317.002 99.9863 316.903 99.8869H316.904ZM321.807 86.6895L322.344 87.2261C322.412 87.2898 322.44 87.3857 322.417 87.4762C322.394 87.5667 322.323 87.6373 322.233 87.6604C322.142 87.6835 322.046 87.6554 321.983 87.587L321.446 87.0505C321.347 86.9508 321.347 86.7892 321.446 86.6895C321.546 86.5898 321.708 86.5898 321.807 86.6895ZM321.249 102.517L321.786 103.053C321.885 103.152 322.047 103.152 322.147 103.053C322.246 102.953 322.246 102.791 322.147 102.692L321.61 102.156C321.511 102.056 321.349 102.056 321.249 102.156C321.15 102.255 321.15 102.417 321.249 102.517ZM321.786 98.5158L321.249 97.9792C321.15 97.8796 321.15 97.718 321.249 97.6183C321.349 97.5186 321.511 97.5186 321.61 97.6183L322.147 98.1549C322.246 98.2545 322.246 98.4161 322.147 98.5158C322.047 98.6155 321.885 98.6155 321.786 98.5158ZM321.249 100.248L321.786 100.784C321.849 100.853 321.945 100.881 322.036 100.858C322.126 100.834 322.197 100.764 322.22 100.673C322.243 100.583 322.215 100.487 322.147 100.423L321.61 99.8869C321.511 99.7872 321.349 99.7872 321.249 99.8869C321.15 99.9866 321.15 100.148 321.249 100.248ZM321.786 94.3925L321.249 93.8563C321.15 93.7566 321.15 93.595 321.249 93.4953C321.349 93.3957 321.511 93.3957 321.61 93.4953L322.147 94.0315C322.246 94.1312 322.246 94.2928 322.147 94.3925C322.047 94.4922 321.885 94.4922 321.786 94.3925ZM322.343 104.907C322.443 104.808 322.443 104.646 322.343 104.547L321.807 104.01C321.743 103.942 321.647 103.914 321.557 103.937C321.466 103.96 321.396 104.031 321.373 104.121C321.35 104.212 321.378 104.308 321.446 104.371L321.982 104.907C322.082 105.007 322.243 105.007 322.343 104.907ZM321.807 95.3496L322.344 95.8862C322.412 95.95 322.44 96.0459 322.417 96.1364C322.394 96.2268 322.323 96.2975 322.233 96.3206C322.142 96.3436 322.046 96.3155 321.983 96.2472L321.446 95.7106C321.347 95.6109 321.347 95.4493 321.446 95.3496C321.546 95.25 321.708 95.25 321.807 95.3496ZM316.904 93.4953C316.804 93.3958 316.643 93.3958 316.543 93.4953L316.007 94.0315C315.908 94.1312 315.908 94.2927 316.007 94.3924C316.107 94.492 316.268 94.492 316.368 94.3924L316.904 93.8563C317.003 93.756 317.002 93.5947 316.903 93.4953H316.904ZM321.786 107.176L321.249 106.64C321.15 106.54 321.15 106.378 321.249 106.279C321.349 106.179 321.511 106.179 321.61 106.279L322.147 106.815C322.246 106.915 322.246 107.076 322.147 107.176C322.047 107.276 321.885 107.276 321.786 107.176ZM316.904 91.2266C316.804 91.1271 316.643 91.1271 316.543 91.2266L316.007 91.7628C315.908 91.8627 315.908 92.0243 316.007 92.1242C316.107 92.2233 316.268 92.2233 316.368 92.1242L316.904 91.5876C317.003 91.4874 317.002 91.3261 316.903 91.2266H316.904ZM314.421 94.3925L313.885 93.8563C313.786 93.7566 313.786 93.595 313.885 93.4953C313.985 93.3957 314.147 93.3957 314.246 93.4953L314.783 94.0315C314.876 94.1323 314.874 94.2892 314.776 94.3865C314.679 94.4838 314.522 94.4865 314.421 94.3925ZM313.885 97.9792L314.421 98.5158C314.522 98.6098 314.679 98.6071 314.776 98.5098C314.874 98.4125 314.876 98.2556 314.783 98.1548L314.246 97.6183C314.147 97.5186 313.985 97.5186 313.885 97.6183C313.786 97.718 313.786 97.8796 313.885 97.9792ZM314.421 92.1243L313.885 91.5877C313.786 91.4881 313.786 91.3264 313.885 91.2268C313.985 91.1271 314.147 91.1271 314.246 91.2268L314.783 91.763C314.88 91.8631 314.879 92.0231 314.78 92.122C314.681 92.2209 314.522 92.2219 314.421 92.1243ZM313.885 89.319L314.421 89.8556C314.522 89.9496 314.679 89.9469 314.776 89.8496C314.874 89.7523 314.876 89.5954 314.783 89.4946L314.246 88.9581C314.182 88.8936 314.088 88.8684 314 88.892C313.912 88.9156 313.843 88.9844 313.819 89.0725C313.796 89.1606 313.821 89.2546 313.885 89.319ZM314.421 100.784L313.885 100.248C313.786 100.148 313.786 99.9866 313.885 99.8869C313.985 99.7872 314.147 99.7872 314.246 99.8869L314.783 100.423C314.849 100.487 314.875 100.582 314.851 100.671C314.828 100.76 314.758 100.83 314.669 100.853C314.58 100.877 314.486 100.85 314.421 100.784ZM314.979 104.907C315.078 104.808 315.078 104.646 314.979 104.547L314.442 104.01C314.378 103.944 314.283 103.918 314.194 103.941C314.105 103.965 314.036 104.034 314.012 104.123C313.989 104.212 314.015 104.307 314.081 104.371L314.617 104.907C314.717 105.007 314.879 105.007 314.979 104.907ZM314.421 103.053L313.885 102.517C313.786 102.417 313.786 102.255 313.885 102.156C313.985 102.056 314.147 102.056 314.246 102.156L314.783 102.692C314.876 102.792 314.874 102.949 314.776 103.047C314.679 103.144 314.522 103.147 314.421 103.053ZM313.885 106.64L314.421 107.176C314.522 107.27 314.679 107.267 314.776 107.17C314.874 107.073 314.876 106.916 314.783 106.815L314.246 106.279C314.147 106.179 313.985 106.179 313.885 106.279C313.786 106.378 313.786 106.54 313.885 106.64ZM316.367 77.0715C316.267 77.171 316.106 77.171 316.006 77.0715L316.005 77.0719C315.905 76.9717 315.906 76.8099 316.006 76.7105L316.371 76.3462C316.566 76.3818 316.759 76.4212 316.949 76.4659C316.938 76.4914 316.922 76.5149 316.903 76.5353L316.367 77.0715ZM316.904 82.566C316.804 82.4665 316.643 82.4665 316.543 82.566L316.007 83.1022C315.908 83.2021 315.908 83.3637 316.007 83.4636C316.107 83.5627 316.268 83.5627 316.368 83.4636L316.904 82.927C317.003 82.8268 317.002 82.6658 316.903 82.5664L316.904 82.566ZM316.543 80.2974C316.643 80.1979 316.804 80.1979 316.904 80.2974L316.903 80.2977C317.002 80.3971 317.003 80.5581 316.904 80.6583L316.368 81.1949C316.268 81.294 316.107 81.294 316.007 81.1949C315.908 81.0952 315.908 80.9337 316.007 80.8339L316.543 80.2974ZM316.904 84.8346C316.804 84.7351 316.643 84.7351 316.543 84.8346L316.007 85.3708C315.908 85.4706 315.908 85.632 316.007 85.7318C316.107 85.8313 316.268 85.8313 316.368 85.7318L316.904 85.1956C317.003 85.0954 317.002 84.9344 316.903 84.835L316.904 84.8346ZM316.543 88.9576C316.643 88.8581 316.804 88.8581 316.904 88.9576L316.903 88.958C317.002 89.0573 317.003 89.2184 316.904 89.3186L316.368 89.8551C316.268 89.9543 316.107 89.9543 316.007 89.8551C315.908 89.7554 315.908 89.5939 316.007 89.4942L316.543 88.9576ZM314.421 81.1949C314.522 81.2889 314.679 81.2863 314.776 81.189C314.874 81.0917 314.876 80.9347 314.783 80.834L314.246 80.2974C314.147 80.1977 313.985 80.1977 313.885 80.2974C313.786 80.3971 313.786 80.5587 313.885 80.6584L314.421 81.1949ZM314.443 95.3492L314.979 95.8857C315.047 95.9495 315.075 96.0454 315.052 96.1359C315.029 96.2264 314.958 96.297 314.868 96.3201C314.777 96.3432 314.681 96.315 314.618 96.2467L314.081 95.7101C314.013 95.6464 313.985 95.5505 314.008 95.46C314.031 95.3695 314.102 95.2989 314.193 95.2758C314.283 95.2527 314.379 95.2808 314.443 95.3492ZM313.885 85.1956L314.421 85.7318C314.522 85.8258 314.679 85.8232 314.776 85.7259C314.874 85.6286 314.876 85.4716 314.783 85.3709L314.246 84.8347C314.147 84.735 313.985 84.735 313.885 84.8347C313.786 84.9344 313.786 85.096 313.885 85.1956ZM314.421 83.4635L313.885 82.9269L313.883 82.9272C313.784 82.827 313.785 82.6654 313.885 82.5659C313.985 82.4666 314.146 82.4666 314.246 82.5659L314.782 83.1021C314.848 83.1664 314.874 83.2611 314.851 83.3502C314.827 83.4392 314.758 83.5088 314.669 83.5322C314.58 83.5557 314.485 83.5294 314.421 83.4635Z" fill="#EED095"/>
<path d="M299.045 64.239C298.095 64.6184 297.436 65.4956 297.335 66.5137C297.007 69.3928 296.592 76.5323 300.302 78.0962C302.005 78.7375 306.006 76.27 305.396 75.2614C305.163 74.8749 303.496 62.567 299.045 64.239Z" fill="black"/>
<path d="M313.969 76.1396L313.392 72.2905C313.108 70.2605 311.232 68.8454 309.203 69.1296C307.173 69.4138 305.759 71.2898 306.043 73.3198L306.677 77.8536C304.418 78.9043 303.433 80.1335 303.433 80.1335C303.433 80.1335 306.57 86.8925 309.714 88.9514C312.859 91.0103 317.358 76.5786 317.358 76.5786C316.245 76.3223 315.11 76.1752 313.969 76.1396Z" fill="#FAC896"/>
<path d="M306.676 77.6497L306.367 75.9612L310.964 74.3533C312.163 74.2257 311.524 76.8902 307.286 77.8474C307.017 77.9101 306.722 77.8992 306.676 77.6497Z" fill="#F39C55"/>
<path d="M312.248 71.053C312.201 74.9516 308.438 76.0927 308.438 76.0927C306.271 77.2779 303.554 76.49 302.356 74.3291L299.622 69.3626C298.438 67.1948 299.225 64.4769 301.386 63.279L305.512 61.0066C307.679 59.8216 310.396 60.6095 311.594 62.7702L314.327 67.7367C315.515 69.8947 312.277 68.5896 312.248 71.053Z" fill="#FAC896"/>
<path d="M312.007 59.2414C307.615 57.5337 302.448 57.2403 300.008 60.6102C299.541 61.2525 299.279 62.0202 299.254 62.8136C299.072 62.9704 298.902 63.1414 298.747 63.325C297.644 64.6517 297.169 66.3914 297.447 68.0945C297.68 69.7625 298.351 71.339 299.39 72.6641C299.54 72.8492 299.774 72.9449 300.01 72.9176C300.247 72.8904 300.453 72.7441 300.556 72.5297C301.403 70.8441 302.054 69.067 302.496 67.233C302.92 67.4562 303.37 67.627 303.835 67.7418C306.516 68.3797 308.648 68.1388 308.712 68.7005C308.776 69.2622 309.421 69.0923 309.685 68.9193C309.95 68.7463 309.31 67.3035 310.467 67.0747C311.624 66.8458 312.02 67.7955 311.835 68.2435C311.649 68.6915 309.88 69.3692 310.034 69.8746C310.188 70.38 311.828 73.8198 312.521 74.0715C313.213 74.3233 314.316 73.3856 315.948 72.9158C318.033 72.3155 317.868 72.9909 318.983 72.386C320.097 71.7812 318.111 61.6155 312.007 59.2414Z" fill="black"/>
<path d="M302.298 96.1091C302.298 96.1091 304.76 105.419 305.042 105.982C305.307 106.513 301.983 111.389 297.351 108.704C296.831 108.397 296.517 107.833 296.532 107.229C296.585 104.647 296.714 97.3823 296.832 96.0292C296.977 94.3854 301.497 92.8462 302.298 96.1091Z" fill="#F7BA84"/>
<path d="M296.588 104.371C298.801 102.92 301.087 101.585 303.439 100.371C302.883 98.3165 302.382 96.4264 302.308 96.1473C300.987 95.7344 299.551 96.2152 298.745 97.3401C297.922 98.3908 297.234 99.3447 296.681 100.202C296.646 101.565 296.615 103.053 296.588 104.371Z" fill="#F39C55"/>
<path d="M302.383 87.6687C302.383 87.6687 302.906 98.2224 303.481 99.0194C303.309 98.9819 299 100.633 297.298 101.765C297.032 101.941 296.516 101.825 296.532 101.529C296.687 98.5312 297.422 89.1599 298.873 87.6687C300.607 85.8864 302.346 86.9693 302.383 87.6687Z" fill="#4FA67C"/>
<path d="M316.629 94.6382C315.936 94.9118 315.296 95.3041 314.737 95.7973C312.42 97.8393 304.582 104.202 294.752 106.277C292.033 106.774 290.907 106.638 290.204 106.277C289.501 105.916 288.281 104.381 287.859 105.058C287.437 105.736 288.047 106.232 288.422 106.954C288.797 107.677 289.594 108.038 289.501 108.58C289.407 109.122 284.577 111.785 283.405 111.514C282.232 111.244 282.232 112.508 283.077 112.734C283.921 112.959 303.615 113.14 311.962 109.889C320.308 106.638 323.979 103.285 324.81 102.042C325.609 100.849 326.051 90.9306 316.629 94.6382Z" fill="#FAC896"/>
<path d="M313.455 96.9473C313.455 96.9473 322.697 100.189 322.112 104.598C322.133 104.583 325.101 102.737 325.596 101.299C326.091 99.8606 315.76 94.9181 315.299 95.1613C314.838 95.4044 313.455 96.9473 313.455 96.9473Z" fill="#F39C55"/>
<path d="M317.265 86.8496C317.203 89.3363 316.711 93.9685 314.039 96.1512C313.982 96.1991 313.957 96.2747 313.972 96.3475C313.988 96.4203 314.043 96.4785 314.114 96.4986C315.814 96.9988 322.334 99.3841 323.137 103.771C323.157 103.882 323.234 103.975 323.34 104.015C323.446 104.055 323.565 104.036 323.653 103.965C325.113 102.764 329.398 97.5481 326.712 87.2669C326.454 86.2759 325.898 85.3882 325.119 84.724C323.872 83.6632 321.784 82.5386 319.28 83.736C318.077 84.3135 317.299 85.5159 317.265 86.8496Z" fill="#4FA67C"/>
<path fill-rule="evenodd" clip-rule="evenodd" d="M323.818 85.5461C323.718 85.6458 323.557 85.6458 323.457 85.5461L322.921 85.0099C322.857 84.9455 322.831 84.8515 322.855 84.7634C322.878 84.6753 322.947 84.6064 323.035 84.5827C323.123 84.5591 323.217 84.5841 323.282 84.6486L323.818 85.1851C323.918 85.2848 323.918 85.4464 323.818 85.5461ZM323.48 86.5045C323.381 86.4048 323.219 86.4048 323.119 86.5045C323.02 86.6042 323.02 86.7658 323.119 86.8654L323.656 87.402C323.72 87.4665 323.814 87.4917 323.902 87.4681C323.99 87.4445 324.059 87.3757 324.083 87.2876C324.106 87.1995 324.081 87.1055 324.017 87.041L323.48 86.5045ZM300.689 87.0796C300.589 87.179 300.427 87.179 300.328 87.0796C300.247 86.9963 300.233 86.8683 300.295 86.7697C300.537 86.7132 300.788 86.7005 301.036 86.7322L300.689 87.0796ZM298.402 90.7194C298.502 90.6198 298.663 90.6198 298.763 90.7194L299.299 91.2559C299.399 91.3556 299.399 91.5172 299.299 91.6169C299.199 91.7166 299.038 91.7166 298.938 91.6169L298.402 91.0803C298.303 90.9804 298.303 90.8193 298.402 90.7194ZM301.421 90.7193C301.321 90.6198 301.16 90.6198 301.06 90.7193L300.524 91.2559C300.43 91.3566 300.433 91.5136 300.53 91.6109C300.627 91.7082 300.784 91.7108 300.885 91.6169L301.421 91.0803C301.521 90.9809 301.521 90.8194 301.422 90.7193H301.421ZM301.224 95.2037C301.318 95.1031 301.315 94.9461 301.218 94.8487C301.121 94.7513 300.964 94.7485 300.863 94.8424L300.327 95.3789C300.228 95.4788 300.228 95.6401 300.327 95.7399C300.427 95.8392 300.588 95.8392 300.688 95.7399L301.224 95.2037ZM301.423 97.4723L300.887 98.0085C300.823 98.0768 300.728 98.1049 300.637 98.0819C300.547 98.0588 300.476 97.9881 300.453 97.8977C300.43 97.8072 300.458 97.7112 300.526 97.6475L301.062 97.1109C301.126 97.0427 301.222 97.0146 301.312 97.0378C301.403 97.061 301.473 97.1317 301.497 97.2222C301.52 97.3127 301.491 97.4086 301.423 97.4723ZM301.423 92.9881C301.323 92.8886 301.161 92.8886 301.062 92.9881L300.525 93.5243C300.428 93.6244 300.429 93.7844 300.528 93.8833C300.626 93.9822 300.786 93.9832 300.887 93.8856L301.423 93.349C301.471 93.3011 301.498 93.236 301.497 93.1681C301.497 93.1003 301.47 93.0352 301.422 92.9873L301.423 92.9881ZM301.062 88.4508C301.162 88.3516 301.323 88.3516 301.423 88.4508H301.423C301.522 88.5504 301.523 88.7119 301.423 88.8117L300.887 89.3483C300.823 89.4167 300.728 89.4448 300.637 89.4217C300.547 89.3986 300.476 89.328 300.453 89.2375C300.43 89.147 300.458 89.0511 300.526 88.9873L301.062 88.4508ZM298.94 100.277C299.039 100.377 299.201 100.377 299.301 100.277C299.4 100.177 299.4 100.016 299.301 99.9161L298.765 99.3796C298.701 99.3112 298.605 99.2831 298.515 99.3062C298.424 99.3293 298.353 99.3999 298.33 99.4904C298.307 99.5809 298.335 99.6768 298.403 99.7405L298.94 100.277ZM301.062 99.3796C301.161 99.2801 301.323 99.2801 301.423 99.3796H301.422C301.521 99.4789 301.522 99.6392 301.423 99.7391C301.117 99.8633 300.792 99.9984 300.46 100.141C300.443 100.06 300.468 99.9758 300.525 99.9162L301.062 99.3796ZM298.939 89.3483C299.004 89.4128 299.098 89.438 299.186 89.4144C299.274 89.3908 299.343 89.322 299.366 89.2339C299.39 89.1458 299.365 89.0518 299.3 88.9874L298.764 88.4508C298.664 88.3516 298.503 88.3516 298.403 88.4508C298.304 88.5507 298.304 88.7118 298.403 88.8118L298.939 89.3483ZM298.961 94.8424L299.498 95.379C299.597 95.4786 299.597 95.6402 299.498 95.7399C299.398 95.8396 299.236 95.8396 299.137 95.7399L298.6 95.2037C298.506 95.1031 298.509 94.9461 298.606 94.8487C298.704 94.7513 298.86 94.7485 298.961 94.8424ZM298.404 97.4723L298.94 98.0085C299.005 98.073 299.099 98.0982 299.187 98.0746C299.275 98.051 299.344 97.9822 299.367 97.8941C299.391 97.806 299.366 97.712 299.301 97.6475L298.765 97.111C298.665 97.0134 298.505 97.0144 298.406 97.1133C298.307 97.2122 298.306 97.3722 298.404 97.4723ZM298.94 93.8856L298.403 93.349C298.335 93.2852 298.307 93.1893 298.33 93.0988C298.353 93.0083 298.424 92.9377 298.515 92.9146C298.605 92.8915 298.701 92.9197 298.765 92.988L299.301 93.5242C299.369 93.5879 299.397 93.6838 299.374 93.7743C299.351 93.8648 299.28 93.9355 299.19 93.9587C299.099 93.9819 299.004 93.9538 298.94 93.8856ZM325.942 97.4334C325.842 97.3339 325.68 97.3339 325.581 97.4334L325.044 97.97C324.95 98.0707 324.953 98.2277 325.051 98.325C325.148 98.4223 325.305 98.4249 325.405 98.331L325.942 97.7944C326.04 97.6941 326.04 97.5328 325.94 97.4334H325.942ZM323.352 103.997C323.261 103.963 323.19 103.89 323.161 103.798H323.159C323.259 103.728 323.394 103.74 323.48 103.825L323.626 103.971C323.544 104.021 323.442 104.031 323.352 103.997ZM325.745 86.8654L325.209 87.402C325.146 87.4703 325.05 87.4985 324.959 87.4754C324.869 87.4523 324.798 87.3817 324.775 87.2912C324.752 87.2007 324.78 87.1048 324.848 87.041L325.384 86.5045C325.484 86.4048 325.646 86.4048 325.745 86.5045C325.845 86.6042 325.845 86.7658 325.745 86.8654ZM325.942 91.0418C325.842 90.9423 325.68 90.9423 325.581 91.0418L325.044 91.578C324.95 91.6787 324.953 91.8357 325.051 91.933C325.148 92.0303 325.305 92.0329 325.405 91.939L325.942 91.4028C326.04 91.3025 326.04 91.1412 325.94 91.0418H325.942ZM325.044 100.238L325.581 99.702C325.68 99.6023 325.842 99.6023 325.941 99.702C326.041 99.8016 326.041 99.9632 325.941 100.063L325.405 100.6C325.305 100.697 325.145 100.696 325.046 100.597C324.948 100.498 324.947 100.338 325.044 100.238ZM322.921 102.33L323.457 102.867C323.556 102.966 323.718 102.966 323.818 102.867C323.917 102.767 323.917 102.605 323.818 102.506L323.281 101.969C323.181 101.873 323.022 101.875 322.924 101.973C322.826 102.071 322.824 102.23 322.921 102.33ZM325.579 93.3093C325.679 93.2098 325.84 93.2098 325.94 93.3093V93.3104C326.038 93.4101 326.038 93.5706 325.94 93.6703L325.404 94.2064C325.303 94.3004 325.146 94.2978 325.049 94.2005C324.951 94.1032 324.949 93.9462 325.042 93.8455L325.579 93.3093ZM323.118 95.1636C323.019 95.2635 323.019 95.4247 323.118 95.5246L323.654 96.0612C323.754 96.1608 323.915 96.1608 324.015 96.0612C324.115 95.9615 324.115 95.7999 324.015 95.7002L323.479 95.1636C323.379 95.0645 323.218 95.0645 323.118 95.1636ZM322.921 91.4016L323.457 91.9378C323.556 92.0375 323.718 92.0375 323.818 91.9378C323.917 91.8381 323.917 91.6765 323.818 91.5768L323.281 91.0406C323.181 90.9442 323.022 90.9457 322.924 91.0441C322.826 91.1425 322.824 91.3015 322.921 91.4016ZM323.457 89.6694L322.921 89.1328C322.855 89.0688 322.828 88.9739 322.851 88.8846C322.874 88.7953 322.944 88.7255 323.033 88.7022C323.123 88.6788 323.217 88.7054 323.281 88.7719L323.818 89.3084C323.918 89.4081 323.918 89.5697 323.818 89.6694C323.718 89.7691 323.557 89.7691 323.457 89.6694ZM322.921 93.6702L323.457 94.2064C323.556 94.306 323.718 94.306 323.818 94.2064C323.917 94.1067 323.917 93.9451 323.818 93.8454L323.281 93.3092C323.181 93.2127 323.022 93.2143 322.924 93.3127C322.826 93.4111 322.824 93.5701 322.921 93.6702ZM323.457 98.3297L322.921 97.7931C322.824 97.693 322.826 97.534 322.924 97.4356C323.022 97.3372 323.181 97.3357 323.281 97.4321L323.818 97.9687C323.917 98.0684 323.917 98.23 323.818 98.3297C323.718 98.4294 323.556 98.4294 323.457 98.3297ZM325.94 88.772C325.84 88.6725 325.679 88.6725 325.579 88.772L325.042 89.3086C324.949 89.4093 324.951 89.5663 325.049 89.6636C325.146 89.7609 325.303 89.7635 325.404 89.6696L325.94 89.133C326.038 89.0333 326.038 88.8728 325.94 88.7731V88.772ZM323.457 100.598L322.921 100.062C322.824 99.9618 322.826 99.8028 322.924 99.7044C323.022 99.606 323.181 99.6045 323.281 99.7009L323.818 100.237C323.912 100.338 323.909 100.495 323.812 100.592C323.714 100.69 323.557 100.692 323.457 100.598ZM319.457 97.4322L318.921 97.9688C318.821 98.0684 318.821 98.23 318.921 98.3297C319.02 98.4294 319.182 98.4294 319.281 98.3297L319.818 97.7931C319.917 97.6935 319.917 97.5319 319.818 97.4322C319.718 97.3325 319.557 97.3325 319.457 97.4322ZM319.457 91.0406C319.557 90.941 319.718 90.941 319.818 91.0406V91.0417C319.917 91.1413 319.917 91.3019 319.818 91.4015L319.281 91.9377C319.182 92.0374 319.02 92.0374 318.921 91.9377C318.821 91.838 318.821 91.6764 318.921 91.5768L319.457 91.0406ZM319.818 88.772C319.718 88.6725 319.557 88.6725 319.457 88.772L318.921 89.3086C318.821 89.4083 318.821 89.5699 318.921 89.6696C319.02 89.7692 319.182 89.7692 319.281 89.6696L319.818 89.133C319.917 89.0334 319.917 88.8728 319.818 88.7731V88.772ZM319.457 93.3093C319.557 93.2098 319.718 93.2098 319.818 93.3093V93.3104C319.917 93.41 319.917 93.5707 319.818 93.6703L319.281 94.2065C319.182 94.3062 319.02 94.3062 318.921 94.2065C318.821 94.1068 318.821 93.9452 318.921 93.8455L319.457 93.3093ZM316.799 97.4322C316.784 97.4485 316.771 97.4668 316.761 97.4866C317.045 97.6161 317.339 97.7575 317.636 97.9102L317.158 97.4322C317.058 97.334 316.898 97.3345 316.799 97.4333V97.4322ZM318.921 85.1851L319.457 84.6485C319.558 84.5547 319.715 84.5575 319.812 84.6549C319.909 84.7523 319.912 84.9092 319.818 85.0099L319.281 85.546C319.182 85.6457 319.02 85.6457 318.921 85.546C318.821 85.4464 318.821 85.2848 318.921 85.1851ZM319.26 86.5033L318.724 87.0399C318.624 87.1396 318.624 87.3012 318.724 87.4009C318.824 87.5006 318.985 87.5006 319.085 87.4009L319.621 86.8643C319.721 86.7646 319.721 86.603 319.621 86.5033C319.522 86.4036 319.36 86.4036 319.26 86.5033ZM319.621 95.5246L319.085 96.0612C318.985 96.1608 318.824 96.1608 318.724 96.0612C318.624 95.9615 318.624 95.7999 318.724 95.7002L319.26 95.1636C319.325 95.0992 319.419 95.074 319.507 95.0976C319.595 95.1212 319.664 95.19 319.687 95.2781C319.711 95.3661 319.686 95.4601 319.621 95.5246ZM317.335 94.2063C317.434 94.306 317.596 94.306 317.695 94.2063C317.795 94.1066 317.795 93.945 317.695 93.8453L317.159 93.3091C317.059 93.2095 316.898 93.2095 316.798 93.3091C316.698 93.4088 316.698 93.5704 316.798 93.6701L317.335 94.2063ZM317.357 86.503L317.893 87.0395V87.041C317.962 87.1048 317.99 87.2007 317.966 87.2912C317.943 87.3817 317.873 87.4523 317.782 87.4754C317.692 87.4985 317.596 87.4703 317.532 87.402L317.262 87.1322L317.265 87.0505V87.0504V87.0504L317.265 87.0503C317.268 86.9755 317.271 86.9013 317.273 86.832C317.278 86.7108 317.29 86.59 317.307 86.47C317.325 86.479 317.342 86.49 317.357 86.503ZM317.357 95.1632C317.257 95.0636 317.095 95.0636 316.996 95.1632C316.896 95.2629 316.896 95.4245 316.996 95.5242L317.532 96.0608C317.596 96.1291 317.691 96.1573 317.782 96.1342C317.872 96.1111 317.943 96.0405 317.966 95.95C317.989 95.8595 317.961 95.7636 317.893 95.6998L317.357 95.1632ZM325.042 85.1848L325.331 84.8966V84.8981C325.454 85.0146 325.572 85.1373 325.683 85.2659L325.404 85.5458C325.303 85.6398 325.146 85.6371 325.049 85.5398C324.951 85.4425 324.949 85.2855 325.042 85.1848ZM325.208 96.0608L325.744 95.5242C325.843 95.4245 325.843 95.2629 325.744 95.1632C325.644 95.0636 325.483 95.0636 325.383 95.1632L324.846 95.6998C324.753 95.8005 324.755 95.9575 324.853 96.0548C324.95 96.1521 325.107 96.1548 325.208 96.0608ZM317.717 85.2169C317.792 85.3168 317.783 85.4563 317.696 85.5456V85.5471C317.651 85.5904 317.592 85.6155 317.53 85.6177C317.584 85.4803 317.646 85.3465 317.717 85.2169ZM316.799 91.4012L317.335 91.9374C317.435 92.0371 317.596 92.0371 317.696 91.9374C317.796 91.8377 317.796 91.6761 317.696 91.5764L317.16 91.0402C317.06 90.9407 316.899 90.9407 316.799 91.0402C316.783 91.058 316.769 91.0781 316.759 91.0998C316.752 91.1309 316.744 91.1621 316.737 91.1932L316.727 91.2331C316.729 91.2967 316.754 91.3572 316.799 91.4027V91.4012ZM317.696 89.3083C317.795 89.4082 317.795 89.5693 317.696 89.6692V89.6707C317.596 89.7694 317.435 89.7687 317.335 89.6692L317.068 89.4021C317.098 89.1844 317.123 88.9717 317.146 88.7623C317.148 88.7641 317.15 88.7654 317.152 88.7666C317.155 88.7681 317.157 88.7695 317.16 88.7717L317.696 89.3083Z" fill="#7DD086"/>
<path d="M325.105 101.523L324.917 101.518C324.997 98.5387 315.724 94.3999 315.63 94.3582L315.705 94.1868C316.093 94.3582 325.188 98.419 325.105 101.523Z" fill="#EDF2F9"/>
<path d="M296.596 97.8686L296.5 97.7068C296.671 97.6059 300.701 95.2337 302.331 95.1084L302.345 95.296C300.76 95.4172 296.637 97.8442 296.596 97.8686Z" fill="#EDF2F9"/>
<path d="M302.709 72.8443C302.96 72.8443 303.163 72.6412 303.163 72.3907C303.163 72.1401 302.96 71.937 302.709 71.937C302.459 71.937 302.256 72.1401 302.256 72.3907C302.256 72.6412 302.459 72.8443 302.709 72.8443Z" fill="#231F20"/>
<path d="M306.273 70.8975C306.523 70.8975 306.726 70.6944 306.726 70.4439C306.726 70.1933 306.523 69.9902 306.273 69.9902C306.022 69.9902 305.819 70.1933 305.819 70.4439C305.819 70.6944 306.022 70.8975 306.273 70.8975Z" fill="#231F20"/>
<path fill-rule="evenodd" clip-rule="evenodd" d="M300.832 73.2201C300.832 74.1887 301.617 74.9739 302.585 74.9739C303.553 74.9727 304.338 74.1882 304.339 73.2201C304.339 72.2515 303.554 71.4663 302.585 71.4663C301.617 71.4663 300.832 72.2515 300.832 73.2201ZM300.985 73.2202C300.985 72.3362 301.701 71.6195 302.585 71.6195C303.468 71.6205 304.184 72.3366 304.185 73.2202C304.185 74.1043 303.469 74.8209 302.585 74.8209C301.701 74.8209 300.985 74.1043 300.985 73.2202Z" fill="white"/>
<path fill-rule="evenodd" clip-rule="evenodd" d="M304.586 71.264C304.89 71.9978 305.606 72.4762 306.4 72.476C307.483 72.4748 308.361 71.5965 308.363 70.5128C308.363 69.7186 307.885 69.0024 307.151 68.6984C306.417 68.3944 305.573 68.5624 305.012 69.124C304.45 69.6856 304.282 70.5303 304.586 71.264ZM304.745 69.8266C305.023 69.157 305.676 68.7204 306.401 68.7206C307.39 68.7218 308.191 69.5235 308.192 70.5127C308.192 71.2376 307.756 71.891 307.086 72.1684C306.417 72.4458 305.646 72.2924 305.134 71.7798C304.621 71.2671 304.468 70.4963 304.745 69.8266Z" fill="white"/>
<path d="M303.757 72.007L304.679 71.306L304.792 71.4554L303.87 72.1564L303.757 72.007Z" fill="white"/>
<path d="M301.295 71.7306C301.229 71.7306 301.169 71.6963 301.135 71.6402C301.101 71.584 301.098 71.5141 301.129 71.456C301.147 71.4218 301.574 70.617 302.211 70.4575C302.311 70.4332 302.412 70.4942 302.437 70.5942C302.462 70.6942 302.402 70.7957 302.302 70.8215C301.909 70.9198 301.562 71.4383 301.461 71.6297C301.429 71.6917 301.365 71.7306 301.295 71.7306Z" fill="#55312F"/>
<path d="M304.426 69.1819C304.354 69.1818 304.289 69.141 304.257 69.0766C304.226 69.0123 304.234 68.9356 304.278 68.8791C304.301 68.8487 304.864 68.1324 305.519 68.0889C305.622 68.0835 305.711 68.161 305.719 68.2637C305.722 68.3134 305.706 68.3623 305.673 68.3998C305.64 68.4372 305.594 68.4601 305.544 68.4634C305.155 68.5589 304.812 68.7874 304.574 69.1095C304.538 69.1552 304.484 69.182 304.426 69.1819Z" fill="#55312F"/>
<path d="M305.478 73.9751H305.455C305.017 73.9556 304.488 72.4326 304.336 71.9662C304.324 71.9338 304.33 71.8972 304.353 71.8711C304.376 71.8449 304.411 71.8335 304.445 71.8413C304.479 71.8491 304.505 71.8749 304.514 71.9084C304.806 72.8048 305.252 73.7785 305.463 73.7879C305.613 73.7928 305.857 73.6971 306.178 73.1947L306.195 73.1688C306.224 73.1281 306.28 73.1179 306.322 73.1455C306.364 73.1731 306.377 73.2289 306.351 73.2719L306.336 73.2956C306.048 73.7466 305.759 73.9751 305.478 73.9751Z" fill="#F39C55"/>
<path d="M306.532 75.4682C306.437 75.4685 306.342 75.4607 306.249 75.4449C306.173 75.4309 306.123 75.3584 306.136 75.2825C306.15 75.2066 306.222 75.1558 306.298 75.1677C306.342 75.1759 307.378 75.3414 307.559 74.4574C307.574 74.3812 307.649 74.3321 307.725 74.3476C307.801 74.3631 307.85 74.4375 307.835 74.5136C307.704 75.1153 307.145 75.5248 306.532 75.4682Z" fill="#F97700"/>
<path d="M302.152 91.9993C302.152 91.9993 301.913 96.1208 304.191 102.981C304.191 102.981 305.944 102.243 306.036 101.974C306.128 101.705 303.67 96.4262 302.152 91.9993Z" fill="#3D805F"/>
<path d="M280.337 121.739C280.337 121.739 276.657 136.658 279.996 146.753L277.515 149.954C277.515 149.954 275.838 135.409 280.337 121.739Z" fill="#AD3659"/>
<path d="M382.539 156.135C382.838 155.902 392.21 149.614 392.291 148.353C392.405 146.603 396.959 157.302 401.627 159.053C406.295 160.804 416.506 164.598 414.95 155.454C413.394 146.311 407.656 131.623 399.293 130.164C390.93 128.705 359.13 143.101 357.672 147.964C356.213 152.828 363.158 166.446 382.539 156.135Z" fill="#1C69FF"/>
<path d="M397.852 177.149C428.225 175.231 452.7 171.331 452.517 168.437C452.335 165.544 427.564 164.753 397.191 166.67C366.817 168.588 342.342 172.489 342.525 175.383C342.708 178.276 367.478 179.067 397.852 177.149Z" fill="#D0D2D8"/>
<path d="M377.752 127.64C377.752 127.64 381.562 126.339 381.821 125.446C382.08 124.553 383.636 120.526 384.155 120.335C384.673 120.144 383.377 124.423 383.182 125.137C382.988 125.85 385.208 127.177 385.749 127C386.29 126.823 385.371 130.119 382.331 131.097C379.291 132.075 375.369 130.211 377.752 127.64Z" fill="#C49B72"/>
<path d="M355.783 99.5772C357.746 100.604 358.505 103.028 357.479 104.992L354.392 110.897C353.366 112.86 350.943 113.62 348.98 112.594C347.016 111.567 346.257 109.143 347.283 107.179L350.37 101.274C351.396 99.3102 353.82 98.5506 355.783 99.5772Z" fill="#C49B72"/>
<path d="M351.144 101.969L355.303 109.218L357.216 105.441L351.144 101.969Z" fill="#917355"/>
<path d="M353.351 104.916C353.351 104.916 360.766 114.009 364.531 100.26C368.297 86.511 354.585 87.8973 351.782 92.3414C349.434 96.0634 350.318 100.753 353.351 104.916Z" fill="#C49B73"/>
<path d="M350.432 84.4067C350.627 84.4104 350.822 84.4008 351.016 84.3779C352.366 84.1892 353.306 82.892 354.478 82.2847C355.479 81.7539 356.588 81.4581 357.721 81.4197C361.197 81.3419 363.822 84.902 365.501 87.4615C366.522 89.0178 367.19 88.6952 368.564 89.5528C369.937 90.4103 370.258 92.1356 370.071 93.9662C369.884 95.7969 367.65 97.7225 365.212 97.8886C362.774 98.0547 359.568 97.2637 357.954 99.6531C357.584 99.3794 357.201 99.1246 356.806 98.8897C356.806 98.8897 356.641 96.6575 355.717 96.5455C354.792 96.4334 353.886 97.5621 354.739 100.141C355.284 101.788 354.311 102.371 354.311 102.371C354.311 102.371 352.706 103.362 349.834 102.774C348.377 102.646 346.999 102.052 345.905 101.081C343.975 99.4624 343.401 97.4606 343.134 95.0483C342.866 92.6359 344.597 92.7818 344.388 89.7384C343.93 88.3719 344.233 87.177 345.568 86.1098C346.874 84.9958 348.539 84.3912 350.256 84.4071L350.432 84.4067Z" fill="black"/>
<path fill-rule="evenodd" clip-rule="evenodd" d="M360.43 93.4305C360.725 93.8091 361.178 94.0313 361.658 94.0335L361.668 94.032C362.015 94.0354 362.355 93.9349 362.643 93.7433C362.926 93.8301 363.22 93.8769 363.516 93.8822C364.19 93.9183 364.771 93.4136 364.83 92.741L364.696 92.7282C364.65 93.3321 364.126 93.7864 363.522 93.7476C363.268 93.741 363.016 93.7053 362.77 93.641C362.82 93.5952 362.866 93.5447 362.906 93.49C363.084 93.2439 363.131 92.9258 363.03 92.6391C362.936 92.3387 362.772 92.243 362.65 92.2154C362.447 92.1968 362.248 92.2743 362.11 92.4248C361.973 92.5752 361.913 92.7814 361.95 92.9818C362.016 93.2838 362.214 93.5401 362.49 93.6799C362.239 93.8233 361.955 93.8983 361.666 93.8974H361.658C361.223 93.8919 360.812 93.6921 360.539 93.3526L360.43 93.4305ZM362.212 92.515C362.299 92.4128 362.424 92.3502 362.558 92.3415C362.579 92.3413 362.6 92.3434 362.62 92.3477C362.745 92.3761 362.842 92.4909 362.901 92.6804C362.99 92.9261 362.951 93.2002 362.797 93.4115C362.747 93.479 362.688 93.5395 362.622 93.5912C362.342 93.4823 362.137 93.2377 362.08 92.943C362.046 92.787 362.096 92.6248 362.212 92.515Z" fill="#231F20"/>
<path fill-rule="evenodd" clip-rule="evenodd" d="M347.861 95.7479C348.303 96.6027 348.848 96.7626 349.194 96.7626C349.31 96.7644 349.426 96.7446 349.535 96.7043L349.482 96.5809C349.447 96.5973 348.623 96.9292 347.981 95.686C347.826 95.3973 347.694 95.0974 347.584 94.7888C347.695 94.8489 347.818 94.8841 347.945 94.8919C348.163 94.901 348.368 94.7885 348.477 94.5997C348.618 94.4012 348.636 94.1413 348.525 93.925C348.394 93.6634 348.144 93.4822 347.855 93.4398C347.731 93.4245 347.609 93.4786 347.538 93.5803C347.352 93.839 347.288 94.1652 347.36 94.4752C347.09 94.2393 346.864 93.9577 346.692 93.6433C346.41 93.1755 346.297 92.6256 346.371 92.0846L346.24 92.0547C346.155 92.6284 346.273 93.2139 346.574 93.7095C346.781 94.0889 347.065 94.4204 347.409 94.6822C347.524 95.0514 347.676 95.4083 347.861 95.7479ZM347.951 94.7572C347.798 94.7424 347.652 94.6876 347.527 94.5985H347.529C347.409 94.2829 347.455 93.9284 347.652 93.6541C347.696 93.5922 347.772 93.5609 347.846 93.5736C348.088 93.6118 348.296 93.7646 348.405 93.9837C348.495 94.1565 348.48 94.3656 348.366 94.5237C348.281 94.6716 348.122 94.7611 347.951 94.7572Z" fill="#231F20"/>
<path d="M357.889 116.92C358.707 117.327 359.396 117.953 359.878 118.73C361.482 121.27 366.422 128.198 372.616 128.251C377.608 128.315 379.099 127.002 379.099 127.002C379.099 127.002 382.211 129.224 382.535 130.65C382.86 132.076 365.376 143.165 356.614 127.991C349.141 115.051 354.594 115.315 357.889 116.92Z" fill="#FF7922"/>
<path d="M338.32 150.457C338.32 150.457 338.418 176.331 371.773 175.261C405.129 174.191 438.873 168.55 439.359 168.258C439.846 167.966 440.429 161.546 439.359 161.449C438.29 161.352 379.845 153.667 358.742 144.913C350.768 142.87 339.682 142.87 338.32 150.457Z" fill="#1C69FF"/>
<path d="M389.471 128.91L383.379 127.561C383.181 127.522 383.01 127.396 382.915 127.218C382.819 127.039 382.809 126.827 382.887 126.64L388.187 112.511C388.355 112.091 388.797 111.849 389.241 111.933L395.332 113.282C395.531 113.32 395.701 113.446 395.797 113.625C395.892 113.803 395.902 114.015 395.824 114.202L390.525 128.332C390.357 128.751 389.915 128.994 389.471 128.91Z" fill="black"/>
<path d="M388.722 128.744L382.631 127.395C382.432 127.357 382.261 127.23 382.166 127.052C382.07 126.873 382.06 126.661 382.138 126.474L387.437 112.345C387.606 111.925 388.047 111.683 388.492 111.767L394.583 113.116C394.782 113.155 394.952 113.281 395.048 113.459C395.143 113.638 395.153 113.85 395.075 114.036L389.776 128.166C389.608 128.586 389.166 128.828 388.722 128.744Z" fill="#424B63"/>
<path d="M394.893 114.523L392.511 120.875L392.293 121.458L391.223 124.311L390.996 124.92L390.14 127.2L382.504 125.507L382.712 124.946L382.939 124.353L384.997 118.862L385.636 117.142L387.253 112.832L389.781 113.39L390.428 113.537L393.886 114.3L394.428 114.416L394.893 114.523Z" fill="#E3E4E6"/>
<path fill-rule="evenodd" clip-rule="evenodd" d="M382.427 125.698L390.261 127.428L395.154 114.382L387.286 112.654L382.427 125.698ZM390.016 126.976L382.948 125.415L387.533 113.106L394.633 114.664L390.016 126.976Z" fill="#424B63"/>
<path d="M381.822 130.455C381.822 130.455 384.415 128.964 384.739 128.121C385.063 127.278 385.323 125.008 386.101 124.619C386.879 124.23 386.944 125.203 386.944 126.305C386.944 127.408 386.231 128.445 386.944 128.251C387.657 128.056 392.13 124.23 392.649 122.025C393.168 119.821 393.816 120.145 394.01 120.923C394.205 121.701 394.529 125.981 392.454 128.705C390.38 131.428 387.462 134.588 385.193 135.894C382.924 137.2 377.932 134.476 381.822 130.455Z" fill="#C49B72"/>
<path d="M338.709 152.958C338.709 152.958 333.872 110.143 347.15 106.649C351.675 106.073 361.594 104.517 361.594 127.148C361.782 133.992 369.749 137.735 381.493 130.081C381.809 129.872 382.196 129.799 382.566 129.877C382.936 129.955 383.26 130.178 383.465 130.497C384.469 132.072 386.023 134.749 385.711 135.773C385.841 135.644 374.82 146.797 360.881 147.381C360.946 147.445 356.797 152.764 338.709 152.958Z" fill="#FF7922"/>
<path d="M394.705 151.25C394.482 150.848 393.483 149.115 392.406 148.182C392.406 148.178 393.004 147.482 393.402 147.021C393.476 146.936 393.589 146.896 393.7 146.914C393.811 146.933 393.904 147.008 393.947 147.112L397.097 154.909L394.81 151.423C394.772 151.367 394.737 151.309 394.705 151.25Z" fill="#1654CC"/>
<path d="M338.709 152.958C338.709 152.958 349.399 153.369 358.644 149.134C356.796 150.884 352.707 153.941 339.579 157.118C339.327 156.731 338.745 153.574 338.709 152.958Z" fill="#1654CC"/>
<path d="M366.698 146.535C366.698 146.535 352.646 151.207 345.45 138.367C345.45 138.367 345.119 141.421 344.665 142.199C344.211 142.977 353.003 150.812 366.698 146.535Z" fill="#D6661D"/>
<path d="M367.096 146.436C367.096 146.436 389.355 143.755 390.201 131.436C390.201 131.436 378.496 144.032 367.096 146.436Z" fill="#1654CC"/>
<path d="M360.147 100.26C360.191 100.26 360.226 100.225 360.226 100.181C360.226 100.137 360.191 100.102 360.147 100.102C360.104 100.102 360.068 100.137 360.068 100.181C360.068 100.225 360.104 100.26 360.147 100.26Z" fill="#F97700"/>
<path d="M360.172 100.702C360.215 100.702 360.251 100.667 360.251 100.623C360.251 100.58 360.215 100.544 360.172 100.544C360.128 100.544 360.093 100.58 360.093 100.623C360.093 100.667 360.128 100.702 360.172 100.702Z" fill="#F97700"/>
<path d="M360.639 100.595C360.682 100.595 360.718 100.56 360.718 100.516C360.718 100.473 360.682 100.438 360.639 100.438C360.595 100.438 360.56 100.473 360.56 100.516C360.56 100.56 360.595 100.595 360.639 100.595Z" fill="#F97700"/>
<path d="M360.749 101.069C360.792 101.069 360.828 101.033 360.828 100.99C360.828 100.946 360.792 100.911 360.749 100.911C360.705 100.911 360.67 100.946 360.67 100.99C360.67 101.033 360.705 101.069 360.749 101.069Z" fill="#F97700"/>
<path d="M362.79 101.112C363.007 101.112 363.183 100.936 363.183 100.719C363.183 100.502 363.007 100.326 362.79 100.326C362.573 100.326 362.397 100.502 362.397 100.719C362.397 100.936 362.573 101.112 362.79 101.112Z" fill="#231F20"/>
<path d="M360.069 104.377C360.069 104.377 360.929 105.614 361.654 105.402C361.794 105.398 358.875 107.083 360.069 104.377Z" fill="white"/>
<path d="M364.003 100.145C363.936 100.145 363.878 100.1 363.861 100.034C363.813 99.696 363.608 99.4004 363.307 99.2373C362.946 99.13 362.557 99.1697 362.225 99.3478C362.154 99.3853 362.067 99.3588 362.028 99.2885C361.99 99.2182 362.016 99.1303 362.086 99.0914C362.496 98.8685 362.98 98.8245 363.424 98.9696C363.809 99.1663 364.077 99.5355 364.145 99.9629C364.164 100.041 364.116 100.12 364.038 100.14C364.027 100.143 364.015 100.145 364.003 100.145Z" fill="#231F20"/>
<path fill-rule="evenodd" clip-rule="evenodd" d="M242.514 125.313C242.514 126.531 243.501 127.519 244.72 127.519C245.938 127.518 246.925 126.531 246.926 125.313C246.926 124.094 245.938 123.107 244.72 123.107C243.501 123.107 242.514 124.094 242.514 125.313ZM243.207 125.314C243.207 124.478 243.884 123.8 244.72 123.8C245.556 123.801 246.233 124.478 246.234 125.314C246.234 126.15 245.556 126.827 244.72 126.827C243.884 126.827 243.207 126.15 243.207 125.314Z" fill="#9876F7"/>
<path d="M243.206 115.412C241.988 115.412 241 114.425 241 113.206C241 111.988 241.988 111 243.206 111C244.425 111 245.412 111.988 245.412 113.206C245.412 114.424 244.424 115.412 243.206 115.412Z" fill="#80E5E0"/>
<path d="M253.524 115.879C253.333 115.879 253.178 115.724 253.178 115.533V114.008C253.183 113.821 253.337 113.673 253.524 113.673C253.711 113.673 253.864 113.821 253.87 114.008V115.533C253.87 115.724 253.715 115.879 253.524 115.879Z" fill="#E189A3"/>
<path d="M253.524 118.549C253.333 118.549 253.178 118.394 253.178 118.203V116.678C253.174 116.552 253.239 116.434 253.348 116.369C253.456 116.305 253.591 116.305 253.7 116.369C253.809 116.434 253.874 116.552 253.87 116.678V118.203C253.87 118.394 253.715 118.549 253.524 118.549Z" fill="#E189A3"/>
<path d="M255.666 116.45H254.294C254.168 116.454 254.05 116.389 253.986 116.28C253.921 116.172 253.921 116.037 253.986 115.928C254.05 115.819 254.168 115.754 254.294 115.758H255.665C255.852 115.764 256 115.917 256 116.104C256 116.291 255.852 116.445 255.665 116.45H255.666Z" fill="#E189A3"/>
<path d="M252.753 116.451H251.382C251.195 116.445 251.047 116.292 251.047 116.104C251.047 115.917 251.195 115.764 251.382 115.758H252.753C252.879 115.755 252.997 115.82 253.062 115.928C253.126 116.037 253.126 116.172 253.062 116.281C252.997 116.389 252.879 116.454 252.753 116.451Z" fill="#E189A3"/>
</g>
<defs>
<clipPath id="clip0">
<rect width="412" height="200" fill="white"/>
</clipPath>
</defs>
</svg>
